<svg version="1.1" id="Layer_1" xmlns="http://www.w3.org/2000/svg" xmlns:xlink="http://www.w3.org/1999/xlink" x="0px" y="0px"
	 width="100%" viewBox="0 0 171 267" enable-background="new 0 0 171 267" xml:space="preserve">
<path fill="#FDFEFE" opacity="1.000000" stroke="none" 
	d="
M82.000000,268.000000 
	C54.681984,268.000000 27.863972,268.000000 1.022979,268.000000 
	C1.022979,179.066132 1.022979,90.132263 1.022979,1.099193 
	C57.901176,1.099193 114.802589,1.099193 171.851990,1.099193 
	C171.851990,89.999802 171.851990,178.999878 171.851990,268.000000 
	C142.132477,268.000000 112.316238,268.000000 82.000000,268.000000 
M67.461525,217.543411 
	C67.461525,217.543411 67.631935,217.632736 68.065849,218.099365 
	C70.718971,219.353271 73.372093,220.607178 76.441460,222.132782 
	C76.441460,222.132782 76.927574,222.236618 77.323898,222.762497 
	C78.173706,222.410645 79.761398,222.068115 79.765976,221.705597 
	C79.898727,211.180923 79.873314,200.654236 79.873314,189.880936 
	C77.538300,189.598099 75.759453,189.382645 73.235992,188.924240 
	C42.917110,181.751846 26.314682,162.028366 21.226770,131.389862 
	C17.025837,131.952576 13.048638,132.485321 7.971748,133.165359 
	C10.151108,146.667984 12.069762,159.780945 14.449339,172.809708 
	C15.745381,179.905869 19.868328,185.605438 25.264074,190.319458 
	C37.861160,201.325012 52.010559,209.932816 67.126289,217.367920 
	C67.126289,217.367920 67.321335,217.411652 67.461525,217.543411 
M163.120956,103.069016 
	C163.048569,89.058212 162.976181,75.047409 163.012878,60.314610 
	C162.437180,59.331070 161.992233,58.236340 161.265198,57.381519 
	C155.205154,50.256310 146.520996,47.922512 138.081406,46.469921 
	C123.586647,43.975132 108.901352,42.034336 94.223824,41.295601 
	C76.201958,40.388527 58.085167,40.665802 40.418541,45.496357 
	C32.355934,47.700905 24.108868,49.368103 16.252993,52.148064 
	C9.964424,54.373405 6.666965,59.270222 6.983322,66.510933 
	C7.361168,75.158989 7.074413,83.836098 7.074851,92.500626 
	C7.075310,101.597282 7.074954,110.693939 7.074954,119.741760 
	C12.882234,119.741760 17.283411,119.741760 21.633291,119.741760 
	C25.986406,84.193855 52.792526,62.308601 84.664650,61.836914 
	C115.879608,61.374958 139.173584,81.308174 145.814865,105.022308 
	C140.632462,105.022308 135.493820,105.022308 130.610992,105.022308 
	C125.473938,96.777580 118.975517,90.224075 111.185226,84.863411 
	C98.110138,75.866180 83.841728,76.765549 69.549599,80.305450 
	C61.875866,82.206085 55.919975,87.267265 50.157242,92.867729 
	C43.431450,99.404114 39.426594,106.917587 37.098560,116.570305 
	C37.098560,117.670746 37.098560,118.771187 37.098560,119.725250 
	C79.113716,119.725250 120.911713,119.725250 162.932831,119.725250 
	C162.932831,114.242523 162.932831,109.115181 163.120956,103.069016 
M96.768394,172.990097 
	C108.995468,170.706757 117.722351,163.240906 125.277748,153.927902 
	C127.365532,151.354446 129.525345,147.843277 132.301331,147.058319 
	C136.440918,145.887756 141.156631,146.754608 145.919540,146.754608 
	C144.502518,157.091187 138.222260,164.596909 131.849747,170.832428 
	C125.161583,177.376801 115.934998,181.326965 107.351715,186.535309 
	C107.351715,186.535309 106.963020,186.820953 106.274254,186.905594 
	C105.848251,187.080460 105.422256,187.255325 104.232162,187.418427 
	C99.913345,188.352631 95.594521,189.286835 91.092117,190.260757 
	C91.092117,200.688644 91.097580,210.794647 91.088638,220.900665 
	C91.086113,223.753296 92.296524,223.574265 94.767036,222.014999 
	C102.124252,217.815125 109.284882,213.211624 116.884811,209.510101 
	C128.256744,203.971420 138.032867,196.581177 147.119583,187.796860 
	C153.120422,181.995712 156.446304,175.429291 157.521683,167.540314 
	C158.622986,159.461166 159.237793,151.315735 160.754059,142.796722 
	C161.269150,139.237274 161.784241,135.677826 162.321533,131.964996 
	C138.240921,131.964996 114.792793,131.964996 91.399796,131.964996 
	C91.399796,146.144287 91.399796,159.859848 91.399796,174.086166 
	C93.177933,173.656418 94.584648,173.316452 96.768394,172.990097 
M50.075439,159.421616 
	C58.079159,167.736374 67.891159,172.298508 79.446686,173.899979 
	C79.446686,159.664673 79.446686,145.819214 79.446686,131.869919 
	C65.104172,131.869919 51.078331,131.869919 36.645336,131.869919 
	C38.034798,142.570908 42.415054,151.403885 50.075439,159.421616 
z"/>
<path fill="#02328D" opacity="1.000000" stroke="none" 
	d="
M37.403824,115.801323 
	C39.426594,106.917587 43.431450,99.404114 50.157242,92.867729 
	C55.919975,87.267265 61.875866,82.206085 69.549599,80.305450 
	C83.841728,76.765549 98.110138,75.866180 111.185226,84.863411 
	C118.975517,90.224075 125.473938,96.777580 130.610992,105.022308 
	C135.493820,105.022308 140.632462,105.022308 145.814865,105.022308 
	C139.173584,81.308174 115.879608,61.374958 84.664650,61.836914 
	C52.792526,62.308601 25.986406,84.193855 21.633291,119.741760 
	C17.283411,119.741760 12.882234,119.741760 7.074954,119.741760 
	C7.074954,110.693939 7.075310,101.597282 7.074851,92.500626 
	C7.074413,83.836098 7.361168,75.158989 6.983322,66.510933 
	C6.666965,59.270222 9.964424,54.373405 16.252993,52.148064 
	C24.108868,49.368103 32.355934,47.700905 40.418541,45.496357 
	C58.085167,40.665802 76.201958,40.388527 94.223824,41.295601 
	C108.901352,42.034336 123.586647,43.975132 138.081406,46.469921 
	C146.520996,47.922512 155.205154,50.256310 161.265198,57.381519 
	C161.992233,58.236340 162.437180,59.331070 162.680725,60.980946 
	C162.234848,75.760414 162.121140,89.873550 161.839966,104.369400 
	C161.447937,107.373779 160.814957,110.038940 161.088531,112.607544 
	C161.576141,117.185593 159.698807,118.108963 155.435608,118.090744 
	C118.352554,117.932281 81.268387,118.037766 44.185123,117.905212 
	C41.922211,117.897118 39.664146,116.533981 37.403824,115.801323 
z"/>
<path fill="#4D91DC" opacity="1.000000" stroke="none" 
	d="
M160.065536,143.199310 
	C159.237793,151.315735 158.622986,159.461166 157.521683,167.540314 
	C156.446304,175.429291 153.120422,181.995712 147.119583,187.796860 
	C138.032867,196.581177 128.256744,203.971420 116.884811,209.510101 
	C109.284882,213.211624 102.124252,217.815125 94.240952,221.677246 
	C93.714874,211.369751 93.714874,201.399979 93.714874,192.147171 
	C97.688141,190.485870 101.342201,188.958038 104.996262,187.430206 
	C105.422256,187.255325 105.848251,187.080460 106.740143,187.054749 
	C107.409943,186.939560 107.613846,186.675217 107.817757,186.410858 
	C115.934998,181.326965 125.161583,177.376801 131.849747,170.832428 
	C138.222260,164.596909 144.502518,157.091187 145.919540,146.754608 
	C141.156631,146.754608 136.440918,145.887756 132.301331,147.058319 
	C129.525345,147.843277 127.365532,151.354446 125.277748,153.927902 
	C117.722351,163.240906 108.995468,170.706757 96.130630,172.697540 
	C94.663696,170.850006 93.151016,169.309982 93.116592,167.737625 
	C92.897835,157.743210 93.158951,147.738083 92.926079,137.744308 
	C92.838936,134.004379 93.991943,132.890320 97.734756,132.928955 
	C115.064857,133.107910 132.397827,133.007965 149.729782,133.007935 
	C159.828110,133.007919 159.828110,133.007919 160.065536,143.199310 
z"/>
<path fill="#A98C03" opacity="1.000000" stroke="none" 
	d="
M67.019341,217.199066 
	C52.010559,209.932816 37.861160,201.325012 25.264074,190.319458 
	C19.868328,185.605438 15.745381,179.905869 14.449339,172.809708 
	C12.069762,159.780945 10.151108,146.667984 7.971748,133.165359 
	C13.048638,132.485321 17.025837,131.952576 21.226770,131.389862 
	C26.314682,162.028366 42.917110,181.751846 73.710175,189.400146 
	C77.233055,191.085754 78.477989,193.137115 78.132805,196.567734 
	C77.769112,200.182266 78.191849,203.868530 78.016914,207.511261 
	C77.780899,212.425812 77.302155,217.328720 76.927574,222.236618 
	C76.927574,222.236618 76.441460,222.132782 76.161491,221.664551 
	C73.131660,220.008469 70.381798,218.820602 67.631935,217.632736 
	C67.631935,217.632736 67.461525,217.543411 67.518639,217.322327 
	C67.390282,217.133865 67.204811,217.166458 67.019341,217.199066 
z"/>
<path fill="#A98C04" opacity="1.000000" stroke="none" 
	d="
M49.799675,159.194748 
	C42.415054,151.403885 38.034798,142.570908 36.645336,131.869919 
	C51.078331,131.869919 65.104172,131.869919 79.446686,131.869919 
	C79.446686,145.819214 79.446686,159.664673 79.446686,173.899979 
	C67.891159,172.298508 58.079159,167.736374 49.799675,159.194748 
z"/>
<path fill="#012B89" opacity="1.000000" stroke="none" 
	d="
M37.251190,116.185814 
	C39.664146,116.533981 41.922211,117.897118 44.185123,117.905212 
	C81.268387,118.037766 118.352554,117.932281 155.435608,118.090744 
	C159.698807,118.108963 161.576141,117.185593 161.088531,112.607544 
	C160.814957,110.038940 161.447937,107.373779 162.071259,104.371780 
	C162.470032,103.991440 162.932831,103.987831 162.932831,103.987831 
	C162.932831,109.115181 162.932831,114.242523 162.932831,119.725250 
	C120.911713,119.725250 79.113716,119.725250 37.098560,119.725250 
	C37.098560,118.771187 37.098560,117.670746 37.251190,116.185814 
z"/>
<path fill="#418BD9" opacity="1.000000" stroke="none" 
	d="
M160.409790,142.998016 
	C159.828110,133.007919 159.828110,133.007919 149.729782,133.007935 
	C132.397827,133.007965 115.064857,133.107910 97.734756,132.928955 
	C93.991943,132.890320 92.838936,134.004379 92.926079,137.744308 
	C93.158951,147.738083 92.897835,157.743210 93.116592,167.737625 
	C93.151016,169.309982 94.663696,170.850006 95.742111,172.690735 
	C94.584648,173.316452 93.177933,173.656418 91.399796,174.086166 
	C91.399796,159.859848 91.399796,146.144287 91.399796,131.964996 
	C114.792793,131.964996 138.240921,131.964996 162.321533,131.964996 
	C161.784241,135.677826 161.269150,139.237274 160.409790,142.998016 
z"/>
<path fill="#4D92DC" opacity="1.000000" stroke="none" 
	d="
M104.614212,187.424316 
	C101.342201,188.958038 97.688141,190.485870 93.714874,192.147171 
	C93.714874,201.399979 93.714874,211.369751 93.883324,221.732742 
	C92.296524,223.574265 91.086113,223.753296 91.088638,220.900665 
	C91.097580,210.794647 91.092117,200.688644 91.092117,190.260757 
	C95.594521,189.286835 99.913345,188.352631 104.614212,187.424316 
z"/>
<path fill="#B09329" opacity="1.000000" stroke="none" 
	d="
M77.125732,222.499557 
	C77.302155,217.328720 77.780899,212.425812 78.016914,207.511261 
	C78.191849,203.868530 77.769112,200.182266 78.132805,196.567734 
	C78.477989,193.137115 77.233055,191.085754 74.082481,189.521622 
	C75.759453,189.382645 77.538300,189.598099 79.873314,189.880936 
	C79.873314,200.654236 79.898727,211.180923 79.765976,221.705597 
	C79.761398,222.068115 78.173706,222.410645 77.125732,222.499557 
z"/>
<path fill="#00117A" opacity="1.000000" stroke="none" 
	d="
M163.026886,103.528427 
	C162.932831,103.987831 162.470032,103.991440 162.238739,103.989059 
	C162.121140,89.873550 162.234848,75.760414 162.626190,61.341946 
	C162.976181,75.047409 163.048569,89.058212 163.026886,103.528427 
z"/>
<path fill="#B09329" opacity="1.000000" stroke="none" 
	d="
M67.848892,217.866058 
	C70.381798,218.820602 73.131660,220.008469 75.953369,221.528702 
	C73.372093,220.607178 70.718971,219.353271 67.848892,217.866058 
z"/>
<path fill="#4D92DC" opacity="1.000000" stroke="none" 
	d="
M107.584732,186.473083 
	C107.613846,186.675217 107.409943,186.939560 107.084526,187.012436 
	C106.963020,186.820953 107.351715,186.535309 107.584732,186.473083 
z"/>
<path fill="#B09329" opacity="1.000000" stroke="none" 
	d="
M67.072815,217.283493 
	C67.204811,217.166458 67.390282,217.133865 67.448547,217.256454 
	C67.321335,217.411652 67.126289,217.367920 67.072815,217.283493 
z"/>
</svg>