<svg version="1.1" id="Layer_1" xmlns="http://www.w3.org/2000/svg" xmlns:xlink="http://www.w3.org/1999/xlink" x="0px" y="0px"
	 width="100%" viewBox="0 0 874 114" enable-background="new 0 0 874 114" xml:space="preserve">
<path fill="#000101" opacity="1.000000" stroke="none" 
	d="
M130.000000,1.000001 
	C378.267334,1.000000 626.534668,1.000000 874.901001,1.000000 
	C874.901001,38.923668 874.901001,76.847687 874.901001,114.885849 
	C583.666687,114.885849 292.333344,114.885849 1.000000,114.885849 
	C1.000000,111.961708 1.000000,108.962700 1.466881,105.428185 
	C8.557985,104.892685 15.182208,104.892685 22.643375,104.892685 
	C22.643375,98.209984 22.640352,91.775490 22.644156,85.340988 
	C22.648701,77.652802 22.651684,77.596939 30.164297,77.657799 
	C39.176105,77.730804 48.129982,77.646629 56.628830,73.949776 
	C69.106857,68.522049 75.574196,57.846752 75.131111,43.154366 
	C74.725243,29.696255 67.591423,19.217468 55.000095,15.124245 
	C49.563801,13.356999 43.615395,12.693646 37.862804,12.468179 
	C25.587944,11.987077 13.289048,12.119155 1.000000,12.000000 
	C1.000000,8.345026 1.000000,4.690052 1.000000,1.000000 
	C42.355965,1.000000 83.711945,1.000000 125.596649,1.464582 
	C126.133965,6.424757 126.335617,10.931182 126.084221,15.412189 
	C125.912598,18.471212 126.899208,20.148630 129.688690,21.599779 
	C142.364243,28.193892 154.899048,35.058281 167.499268,41.797825 
	C168.586517,42.379364 169.781784,42.758968 171.536072,43.484238 
	C171.536072,38.399467 171.326660,33.929199 171.605576,29.489613 
	C171.810669,26.224823 170.750076,24.435659 167.763199,22.895889 
	C155.948441,16.805246 144.274918,10.438431 132.612747,4.057558 
	C131.513321,3.456012 130.860291,2.038618 130.000000,1.000001 
M214.500977,12.360853 
	C208.438583,12.360853 202.376175,12.360853 196.011459,12.360853 
	C196.011459,42.871563 196.032471,72.330627 195.976471,101.789551 
	C195.971313,104.505165 197.233307,105.205589 199.637894,105.162094 
	C204.132553,105.080795 208.632736,105.040703 213.124817,105.175903 
	C215.967728,105.261467 216.939499,104.044327 216.881683,101.313210 
	C216.768875,95.986877 216.795822,90.655540 216.869522,85.327728 
	C217.020966,74.380234 215.330353,76.204666 226.433914,75.775131 
	C230.714401,75.609550 233.456741,76.766029 235.757828,80.610939 
	C240.113068,87.888138 245.026047,94.835808 249.828903,101.836960 
	C250.707504,103.117737 252.128098,104.875931 253.359009,104.926003 
	C260.564606,105.219063 267.788208,105.069839 276.035187,105.069839 
	C268.285156,93.600113 261.195496,83.107666 254.109329,72.620415 
	C255.089355,71.918983 255.460236,71.562012 255.901016,71.351280 
	C272.143097,63.586605 274.874786,50.328224 272.631653,36.025013 
	C270.527679,22.609200 260.041351,14.210231 243.942154,12.936200 
	C234.505615,12.189427 224.984024,12.517291 214.500977,12.360853 
M766.953674,105.139900 
	C771.131836,105.177628 769.751831,103.164291 768.406433,101.183014 
	C761.968750,91.702530 755.526001,82.225487 749.645264,73.571495 
	C754.529236,69.096405 759.966370,65.659630 763.303589,60.785133 
	C776.615417,41.341259 764.749268,15.347533 741.234375,13.264778 
	C725.371704,11.859796 709.315430,12.633911 693.345459,12.468082 
	C692.723450,12.461624 692.097656,12.817118 690.994263,13.147487 
	C690.994263,15.097129 690.994263,17.061834 690.994263,19.026541 
	C690.994202,42.500893 690.944519,65.975441 691.033447,89.449448 
	C691.052673,94.528992 689.687561,101.635033 692.374634,104.129608 
	C695.210266,106.762062 702.140991,104.844116 707.262878,105.199699 
	C710.980408,105.457787 711.755859,103.688416 711.685791,100.443802 
	C711.538452,93.621231 711.726440,86.791885 711.619019,79.967796 
	C711.572754,77.026802 712.688232,76.105125 715.665344,75.762787 
	C723.641785,74.845573 730.034180,76.357872 733.299072,84.647095 
	C733.955261,86.313126 735.242920,87.739357 736.289978,89.240868 
	C739.897034,94.413078 742.479309,101.530464 747.441895,104.180824 
	C752.405457,106.831688 759.757507,105.010353 766.953674,105.139900 
M333.609253,88.196159 
	C325.074615,87.985771 317.956329,84.228279 311.099609,79.552383 
	C309.956696,78.772987 307.092224,78.721664 306.285767,79.555267 
	C302.732635,83.227982 299.641876,87.348053 296.072388,91.684105 
	C303.793060,98.833054 312.463257,103.021721 322.210052,105.201477 
	C333.573669,107.742821 344.772308,107.689529 355.306030,102.146339 
	C365.535034,96.763496 369.454468,87.847542 369.224060,76.495872 
	C369.012878,66.091110 363.978180,59.174782 354.883026,55.021877 
	C350.364868,52.958866 345.561432,51.499935 340.838776,49.911167 
	C335.955688,48.268433 330.951324,46.970943 326.117859,45.200691 
	C322.213409,43.770683 319.464935,41.064388 320.363251,36.469326 
	C321.223907,32.067020 324.634827,29.661644 328.684479,29.988132 
	C334.704468,30.473478 340.728394,31.724993 346.567261,33.321289 
	C349.818359,34.210117 352.697968,36.457680 356.162445,38.316940 
	C359.285187,33.765514 362.392365,29.472898 365.162292,24.972687 
	C365.637146,24.201260 365.095825,22.080366 364.311035,21.366058 
	C352.236725,10.375951 326.409485,7.812197 312.495209,16.235983 
	C302.592255,22.231281 299.115173,31.386887 299.872284,42.621326 
	C300.557312,52.785950 306.090820,59.268459 315.138580,62.924984 
	C320.213715,64.976036 325.578308,66.301727 330.777008,68.059097 
	C335.492401,69.653091 340.427979,70.882324 344.782745,73.186546 
	C350.685486,76.309860 350.336243,83.818779 344.223663,86.542839 
	C341.308685,87.841896 337.777039,87.757240 333.609253,88.196159 
M526.968262,64.481033 
	C521.069214,48.560524 515.207092,32.626080 509.212769,16.741539 
	C508.625916,15.186331 507.287292,12.793462 506.192383,12.734246 
	C499.351746,12.364285 492.481171,12.547503 485.101349,12.547503 
	C486.043549,15.079760 486.588135,16.643335 487.202271,18.179071 
	C497.275818,43.370014 507.362427,68.555733 517.436646,93.746391 
	C522.369568,106.081154 522.362549,105.940994 535.546021,106.095810 
	C539.287659,106.139755 541.079834,105.002319 542.478394,101.454498 
	C553.466614,73.579956 564.686829,45.796860 575.817688,17.978443 
	C576.463196,16.365168 576.952881,14.689555 577.748047,12.360633 
	C571.477661,12.360633 566.001099,12.554517 560.546570,12.291944 
	C556.956177,12.119106 555.224060,13.455872 554.018677,16.838766 
	C548.879089,31.262978 543.481384,45.595348 538.156128,59.953156 
	C536.159424,65.336731 534.103516,70.698341 531.700806,77.059540 
	C529.910767,72.350952 528.555786,68.786720 526.968262,64.481033 
M623.500000,31.157721 
	C636.142029,31.156666 648.785095,31.069740 661.425476,31.212198 
	C664.775635,31.249956 666.355713,30.360773 666.060425,26.740261 
	C665.804382,23.600706 665.747192,20.396252 666.073975,17.269817 
	C666.507812,13.119740 664.643555,12.254476 660.910522,12.285526 
	C643.612122,12.429406 626.311768,12.348123 609.012146,12.347806 
	C594.769531,12.347546 594.909424,12.346406 595.045471,26.505728 
	C595.082703,30.373394 596.487244,31.317709 600.045471,31.218878 
	C607.525085,31.011127 615.014587,31.157164 623.500000,31.157721 
M657.442383,105.157730 
	C658.274170,105.157570 659.122986,105.048447 659.934937,105.175209 
	C664.639832,105.909737 666.717712,104.185265 666.070679,99.230247 
	C665.728943,96.613159 665.759766,93.885544 666.066833,91.259796 
	C666.553894,87.094437 664.617004,86.257225 660.899963,86.286682 
	C643.267395,86.426422 625.633179,86.348122 607.999512,86.347778 
	C595.082336,86.347534 595.380371,86.356842 594.993713,99.019836 
	C594.829773,104.387833 596.765747,105.321327 601.559387,105.256844 
	C619.855164,105.010757 638.156128,105.157784 657.442383,105.157730 
M659.394409,68.157639 
	C665.996460,68.107956 665.997986,68.107956 666.009521,61.782646 
	C666.014099,59.287197 665.774536,56.764202 666.062561,54.302483 
	C666.541199,50.211567 664.728577,49.248928 660.942566,49.281960 
	C643.475708,49.434345 626.006775,49.348152 608.538574,49.347809 
	C594.942932,49.347546 595.112549,49.348709 595.035645,62.983028 
	C595.011414,67.271271 596.519958,68.269562 600.522400,68.234001 
	C619.819031,68.062515 639.118103,68.157524 659.394409,68.157639 
M408.509216,31.159422 
	C427.290039,31.159422 446.070892,31.159422 465.654541,31.159422 
	C465.654541,26.505426 465.412537,22.376076 465.719849,18.288019 
	C466.054108,13.841377 464.667236,12.184364 459.920258,12.242864 
	C440.112244,12.486965 420.297485,12.495704 400.489807,12.237613 
	C395.685699,12.175016 394.680756,13.890306 394.748718,18.286467 
	C394.947662,31.155972 394.780579,31.158554 408.509216,31.159422 
M830.500000,12.345416 
	C820.521118,12.346473 810.540833,12.444417 800.564209,12.294345 
	C797.217590,12.244004 795.633606,13.168657 795.935364,16.790766 
	C796.196777,19.928942 796.243835,23.131977 795.926514,26.259764 
	C795.507263,30.392492 797.355164,31.249683 801.090393,31.223801 
	C821.213501,31.084379 841.337952,31.163517 861.461975,31.147100 
	C862.930847,31.145903 864.399658,30.985283 866.654968,30.852463 
	C866.654968,26.664064 866.369263,22.699701 866.727295,18.794367 
	C867.176331,13.897091 865.690002,11.996984 860.433472,12.225891 
	C850.805481,12.645172 841.146240,12.345924 830.500000,12.345416 
M844.499817,86.345421 
	C830.030457,86.345757 815.560181,86.438896 801.092468,86.282707 
	C797.365845,86.242470 795.475891,87.106659 795.926697,91.262589 
	C796.247742,94.221428 796.236572,97.268791 795.929504,100.230598 
	C795.505371,104.321129 797.282227,105.253952 801.061096,105.226532 
	C821.184082,105.080513 841.308655,105.163353 861.432678,105.147575 
	C862.904968,105.146423 864.377075,104.991638 866.649536,104.862961 
	C866.649536,100.030807 866.488037,95.418518 866.701294,90.823631 
	C866.867676,87.239662 865.306152,86.193779 861.963196,86.301025 
	C856.480530,86.476913 850.987976,86.347145 844.499817,86.345421 
M465.653412,91.802437 
	C465.945099,88.371796 465.349213,86.219902 460.934753,86.262146 
	C440.451752,86.458115 419.965637,86.398193 399.481262,86.299690 
	C396.157501,86.283707 394.511230,87.170303 394.792725,90.802254 
	C395.036499,93.947685 395.032593,97.141388 394.793182,100.287514 
	C394.517517,103.910683 395.724091,105.259338 399.541229,105.230286 
	C420.191406,105.073112 440.843445,105.160881 461.494812,105.137383 
	C462.628448,105.136093 463.761841,104.893730 465.653442,104.676521 
	C465.653442,100.622620 465.653442,96.677040 465.653412,91.802437 
M414.500427,68.159424 
	C431.283783,68.159424 448.067139,68.159424 465.641693,68.159424 
	C465.641693,62.842560 465.536804,58.062580 465.678802,53.289944 
	C465.772095,50.154152 464.281067,49.313335 461.423279,49.321579 
	C440.614014,49.381618 419.804352,49.381187 398.995087,49.320477 
	C396.140015,49.312141 394.642853,50.114880 394.804901,53.284492 
	C394.991638,56.937424 394.985901,60.613800 394.808716,64.267624 
	C394.654846,67.440582 396.157318,68.267281 399.018311,68.189003 
	C403.842407,68.057030 408.672882,68.157181 414.500427,68.159424 
M854.482910,68.159424 
	C858.275330,68.159424 862.067749,68.159424 866.641663,68.159424 
	C866.641663,62.829716 866.537170,58.054871 866.678772,53.287327 
	C866.771729,50.155354 865.282776,49.313519 862.427246,49.321716 
	C841.637634,49.381432 820.847595,49.384735 800.058044,49.315968 
	C797.162720,49.306393 795.751099,50.148697 795.946472,53.296940 
	C796.152100,56.610477 796.248230,59.972149 795.924377,63.266785 
	C795.517029,67.410301 797.372314,68.255074 801.097778,68.223602 
	C818.559998,68.076080 836.024170,68.159042 854.482910,68.159424 
M128.983032,62.414562 
	C136.454071,66.419991 143.925110,70.425415 152.011642,74.760826 
	C152.011642,68.937515 151.808823,64.274704 152.084488,59.640354 
	C152.261963,56.656628 151.056412,55.241974 148.535278,53.921783 
	C135.745102,47.224285 123.061073,40.324249 110.325630,33.521805 
	C109.259933,32.952579 108.088837,32.580654 106.469597,31.911688 
	C106.469597,37.189854 106.630379,41.830441 106.410683,46.452946 
	C106.273819,49.332592 107.222969,50.953171 109.862946,52.253841 
	C116.113091,55.333172 122.189232,58.765648 128.983032,62.414562 
M98.551460,68.011017 
	C95.229607,66.257217 91.907761,64.503418 87.824326,62.347534 
	C87.824326,67.803505 88.002846,72.414749 87.761627,77.003922 
	C87.600563,80.068230 88.624474,81.751564 91.417259,83.185898 
	C101.319786,88.271652 111.055603,93.681389 120.870583,98.938499 
	C124.766861,101.025436 128.704956,103.034309 133.175400,105.366364 
	C133.175400,99.810272 133.012314,94.991890 133.238724,90.191887 
	C133.367310,87.466064 132.382675,86.063797 129.991486,84.816757 
	C119.674759,79.436447 109.471565,73.838425 98.551460,68.011017 
z"/>
<path fill="#485566" opacity="1.000000" stroke="none" 
	d="
M1.000000,12.468657 
	C13.289048,12.119155 25.587944,11.987077 37.862804,12.468179 
	C43.615395,12.693646 49.563801,13.356999 55.000095,15.124245 
	C67.591423,19.217468 74.725243,29.696255 75.131111,43.154366 
	C75.574196,57.846752 69.106857,68.522049 56.628830,73.949776 
	C48.129982,77.646629 39.176105,77.730804 30.164297,77.657799 
	C22.651684,77.596939 22.648701,77.652802 22.644156,85.340988 
	C22.640352,91.775490 22.643375,98.209984 22.643375,104.892685 
	C15.182208,104.892685 8.557985,104.892685 1.466881,104.946342 
	C1.000000,74.312439 1.000000,43.624878 1.000000,12.468657 
M37.232330,31.150721 
	C33.582008,31.156551 29.891424,30.855818 26.302254,31.327229 
	C24.967236,31.502571 22.884697,33.438000 22.826403,34.651665 
	C22.492456,41.604317 22.494804,48.589355 22.823637,55.542557 
	C22.882385,56.784828 24.938292,58.865795 26.186007,58.954388 
	C31.133398,59.305664 36.158112,59.361172 41.095032,58.897152 
	C50.601017,58.003708 55.891037,50.525959 53.899754,41.363907 
	C52.511395,34.975948 47.466862,31.704477 37.232330,31.150721 
z"/>
<path fill="#5EC1C6" opacity="1.000000" stroke="none" 
	d="
M129.600006,1.000001 
	C130.860291,2.038618 131.513321,3.456012 132.612747,4.057558 
	C144.274918,10.438431 155.948441,16.805246 167.763199,22.895889 
	C170.750076,24.435659 171.810669,26.224823 171.605576,29.489613 
	C171.326660,33.929199 171.536072,38.399467 171.536072,43.484238 
	C169.781784,42.758968 168.586517,42.379364 167.499268,41.797825 
	C154.899048,35.058281 142.364243,28.193892 129.688690,21.599779 
	C126.899208,20.148630 125.912598,18.471212 126.084221,15.412189 
	C126.335617,10.931182 126.133965,6.424757 126.062691,1.464582 
	C127.066673,1.000000 128.133347,1.000000 129.600006,1.000001 
z"/>
<path fill="#485666" opacity="1.000000" stroke="none" 
	d="
M215.000839,12.361301 
	C224.984024,12.517291 234.505615,12.189427 243.942154,12.936200 
	C260.041351,14.210231 270.527679,22.609200 272.631653,36.025013 
	C274.874786,50.328224 272.143097,63.586605 255.901016,71.351280 
	C255.460236,71.562012 255.089355,71.918983 254.109329,72.620415 
	C261.195496,83.107666 268.285156,93.600113 276.035187,105.069839 
	C267.788208,105.069839 260.564606,105.219063 253.359009,104.926003 
	C252.128098,104.875931 250.707504,103.117737 249.828903,101.836960 
	C245.026047,94.835808 240.113068,87.888138 235.757828,80.610939 
	C233.456741,76.766029 230.714401,75.609550 226.433914,75.775131 
	C215.330353,76.204666 217.020966,74.380234 216.869522,85.327728 
	C216.795822,90.655540 216.768875,95.986877 216.881683,101.313210 
	C216.939499,104.044327 215.967728,105.261467 213.124817,105.175903 
	C208.632736,105.040703 204.132553,105.080795 199.637894,105.162094 
	C197.233307,105.205589 195.971313,104.505165 195.976471,101.789551 
	C196.032471,72.330627 196.011459,42.871563 196.011459,12.360853 
	C202.376175,12.360853 208.438583,12.360853 215.000839,12.361301 
M252.342545,43.610729 
	C251.377609,35.762184 247.542618,31.857975 239.312103,31.309462 
	C233.017731,30.889982 226.674667,31.244503 220.355255,31.136955 
	C217.772324,31.092995 216.810623,32.196568 216.842529,34.709686 
	C216.922760,41.030365 216.685791,47.362865 217.029617,53.665874 
	C217.099319,54.943737 219.120895,57.114883 220.315353,57.165749 
	C226.952042,57.448353 233.632980,57.517891 240.256912,57.057720 
	C247.937363,56.524147 251.604248,52.391979 252.342545,43.610729 
z"/>
<path fill="#485566" opacity="1.000000" stroke="none" 
	d="
M766.508118,105.144653 
	C759.757507,105.010353 752.405457,106.831688 747.441895,104.180824 
	C742.479309,101.530464 739.897034,94.413078 736.289978,89.240868 
	C735.242920,87.739357 733.955261,86.313126 733.299072,84.647095 
	C730.034180,76.357872 723.641785,74.845573 715.665344,75.762787 
	C712.688232,76.105125 711.572754,77.026802 711.619019,79.967796 
	C711.726440,86.791885 711.538452,93.621231 711.685791,100.443802 
	C711.755859,103.688416 710.980408,105.457787 707.262878,105.199699 
	C702.140991,104.844116 695.210266,106.762062 692.374634,104.129608 
	C689.687561,101.635033 691.052673,94.528992 691.033447,89.449448 
	C690.944519,65.975441 690.994202,42.500893 690.994263,19.026541 
	C690.994263,17.061834 690.994263,15.097129 690.994263,13.147487 
	C692.097656,12.817118 692.723450,12.461624 693.345459,12.468082 
	C709.315430,12.633911 725.371704,11.859796 741.234375,13.264778 
	C764.749268,15.347533 776.615417,41.341259 763.303589,60.785133 
	C759.966370,65.659630 754.529236,69.096405 749.645264,73.571495 
	C755.526001,82.225487 761.968750,91.702530 768.406433,101.183014 
	C769.751831,103.164291 771.131836,105.177628 766.508118,105.144653 
M714.683350,57.306000 
	C721.667358,57.231926 728.686096,57.566967 735.626404,56.978107 
	C743.923706,56.274120 748.233093,50.272358 747.173279,42.032467 
	C746.331604,35.488632 741.470154,31.581490 733.170593,31.228514 
	C727.357361,30.981277 721.523376,31.261883 715.703247,31.119001 
	C712.678894,31.044756 711.554016,32.265141 711.614990,35.237934 
	C711.737854,41.225342 711.529846,47.221523 711.748474,53.203503 
	C711.797852,54.554970 713.034363,55.863060 714.683350,57.306000 
z"/>
<path fill="#485666" opacity="1.000000" stroke="none" 
	d="
M334.066986,88.247757 
	C337.777039,87.757240 341.308685,87.841896 344.223663,86.542839 
	C350.336243,83.818779 350.685486,76.309860 344.782745,73.186546 
	C340.427979,70.882324 335.492401,69.653091 330.777008,68.059097 
	C325.578308,66.301727 320.213715,64.976036 315.138580,62.924984 
	C306.090820,59.268459 300.557312,52.785950 299.872284,42.621326 
	C299.115173,31.386887 302.592255,22.231281 312.495209,16.235983 
	C326.409485,7.812197 352.236725,10.375951 364.311035,21.366058 
	C365.095825,22.080366 365.637146,24.201260 365.162292,24.972687 
	C362.392365,29.472898 359.285187,33.765514 356.162445,38.316940 
	C352.697968,36.457680 349.818359,34.210117 346.567261,33.321289 
	C340.728394,31.724993 334.704468,30.473478 328.684479,29.988132 
	C324.634827,29.661644 321.223907,32.067020 320.363251,36.469326 
	C319.464935,41.064388 322.213409,43.770683 326.117859,45.200691 
	C330.951324,46.970943 335.955688,48.268433 340.838776,49.911167 
	C345.561432,51.499935 350.364868,52.958866 354.883026,55.021877 
	C363.978180,59.174782 369.012878,66.091110 369.224060,76.495872 
	C369.454468,87.847542 365.535034,96.763496 355.306030,102.146339 
	C344.772308,107.689529 333.573669,107.742821 322.210052,105.201477 
	C312.463257,103.021721 303.793060,98.833054 296.072388,91.684105 
	C299.641876,87.348053 302.732635,83.227982 306.285767,79.555267 
	C307.092224,78.721664 309.956696,78.772987 311.099609,79.552383 
	C317.956329,84.228279 325.074615,87.985771 334.066986,88.247757 
z"/>
<path fill="#485666" opacity="1.000000" stroke="none" 
	d="
M527.084534,64.851761 
	C528.555786,68.786720 529.910767,72.350952 531.700806,77.059540 
	C534.103516,70.698341 536.159424,65.336731 538.156128,59.953156 
	C543.481384,45.595348 548.879089,31.262978 554.018677,16.838766 
	C555.224060,13.455872 556.956177,12.119106 560.546570,12.291944 
	C566.001099,12.554517 571.477661,12.360633 577.748047,12.360633 
	C576.952881,14.689555 576.463196,16.365168 575.817688,17.978443 
	C564.686829,45.796860 553.466614,73.579956 542.478394,101.454498 
	C541.079834,105.002319 539.287659,106.139755 535.546021,106.095810 
	C522.362549,105.940994 522.369568,106.081154 517.436646,93.746391 
	C507.362427,68.555733 497.275818,43.370014 487.202271,18.179071 
	C486.588135,16.643335 486.043549,15.079760 485.101349,12.547503 
	C492.481171,12.547503 499.351746,12.364285 506.192383,12.734246 
	C507.287292,12.793462 508.625916,15.186331 509.212769,16.741539 
	C515.207092,32.626080 521.069214,48.560524 527.084534,64.851761 
z"/>
<path fill="#475465" opacity="1.000000" stroke="none" 
	d="
M623.000000,31.157848 
	C615.014587,31.157164 607.525085,31.011127 600.045471,31.218878 
	C596.487244,31.317709 595.082703,30.373394 595.045471,26.505728 
	C594.909424,12.346406 594.769531,12.347546 609.012146,12.347806 
	C626.311768,12.348123 643.612122,12.429406 660.910522,12.285526 
	C664.643555,12.254476 666.507812,13.119740 666.073975,17.269817 
	C665.747192,20.396252 665.804382,23.600706 666.060425,26.740261 
	C666.355713,30.360773 664.775635,31.249956 661.425476,31.212198 
	C648.785095,31.069740 636.142029,31.156666 623.000000,31.157848 
z"/>
<path fill="#475465" opacity="1.000000" stroke="none" 
	d="
M656.948792,105.157852 
	C638.156128,105.157784 619.855164,105.010757 601.559387,105.256844 
	C596.765747,105.321327 594.829773,104.387833 594.993713,99.019836 
	C595.380371,86.356842 595.082336,86.347534 607.999512,86.347778 
	C625.633179,86.348122 643.267395,86.426422 660.899963,86.286682 
	C664.617004,86.257225 666.553894,87.094437 666.066833,91.259796 
	C665.759766,93.885544 665.728943,96.613159 666.070679,99.230247 
	C666.717712,104.185265 664.639832,105.909737 659.934937,105.175209 
	C659.122986,105.048447 658.274170,105.157570 656.948792,105.157852 
z"/>
<path fill="#475465" opacity="1.000000" stroke="none" 
	d="
M658.905334,68.157806 
	C639.118103,68.157524 619.819031,68.062515 600.522400,68.234001 
	C596.519958,68.269562 595.011414,67.271271 595.035645,62.983028 
	C595.112549,49.348709 594.942932,49.347546 608.538574,49.347809 
	C626.006775,49.348152 643.475708,49.434345 660.942566,49.281960 
	C664.728577,49.248928 666.541199,50.211567 666.062561,54.302483 
	C665.774536,56.764202 666.014099,59.287197 666.009521,61.782646 
	C665.997986,68.107956 665.996460,68.107956 658.905334,68.157806 
z"/>
<path fill="#475465" opacity="1.000000" stroke="none" 
	d="
M408.011169,31.159554 
	C394.780579,31.158554 394.947662,31.155972 394.748718,18.286467 
	C394.680756,13.890306 395.685699,12.175016 400.489807,12.237613 
	C420.297485,12.495704 440.112244,12.486965 459.920258,12.242864 
	C464.667236,12.184364 466.054108,13.841377 465.719849,18.288019 
	C465.412537,22.376076 465.654541,26.505426 465.654541,31.159422 
	C446.070892,31.159422 427.290039,31.159422 408.011169,31.159554 
z"/>
<path fill="#475465" opacity="1.000000" stroke="none" 
	d="
M831.000000,12.345852 
	C841.146240,12.345924 850.805481,12.645172 860.433472,12.225891 
	C865.690002,11.996984 867.176331,13.897091 866.727295,18.794367 
	C866.369263,22.699701 866.654968,26.664064 866.654968,30.852463 
	C864.399658,30.985283 862.930847,31.145903 861.461975,31.147100 
	C841.337952,31.163517 821.213501,31.084379 801.090393,31.223801 
	C797.355164,31.249683 795.507263,30.392492 795.926514,26.259764 
	C796.243835,23.131977 796.196777,19.928942 795.935364,16.790766 
	C795.633606,13.168657 797.217590,12.244004 800.564209,12.294345 
	C810.540833,12.444417 820.521118,12.346473 831.000000,12.345852 
z"/>
<path fill="#475465" opacity="1.000000" stroke="none" 
	d="
M844.999756,86.345856 
	C850.987976,86.347145 856.480530,86.476913 861.963196,86.301025 
	C865.306152,86.193779 866.867676,87.239662 866.701294,90.823631 
	C866.488037,95.418518 866.649536,100.030807 866.649536,104.862961 
	C864.377075,104.991638 862.904968,105.146423 861.432678,105.147575 
	C841.308655,105.163353 821.184082,105.080513 801.061096,105.226532 
	C797.282227,105.253952 795.505371,104.321129 795.929504,100.230598 
	C796.236572,97.268791 796.247742,94.221428 795.926697,91.262589 
	C795.475891,87.106659 797.365845,86.242470 801.092468,86.282707 
	C815.560181,86.438896 830.030457,86.345757 844.999756,86.345856 
z"/>
<path fill="#475465" opacity="1.000000" stroke="none" 
	d="
M465.653442,92.266953 
	C465.653442,96.677040 465.653442,100.622620 465.653442,104.676521 
	C463.761841,104.893730 462.628448,105.136093 461.494812,105.137383 
	C440.843445,105.160881 420.191406,105.073112 399.541229,105.230286 
	C395.724091,105.259338 394.517517,103.910683 394.793182,100.287514 
	C395.032593,97.141388 395.036499,93.947685 394.792725,90.802254 
	C394.511230,87.170303 396.157501,86.283707 399.481262,86.299690 
	C419.965637,86.398193 440.451752,86.458115 460.934753,86.262146 
	C465.349213,86.219902 465.945099,88.371796 465.653442,92.266953 
z"/>
<path fill="#475465" opacity="1.000000" stroke="none" 
	d="
M414.000549,68.159561 
	C408.672882,68.157181 403.842407,68.057030 399.018311,68.189003 
	C396.157318,68.267281 394.654846,67.440582 394.808716,64.267624 
	C394.985901,60.613800 394.991638,56.937424 394.804901,53.284492 
	C394.642853,50.114880 396.140015,49.312141 398.995087,49.320477 
	C419.804352,49.381187 440.614014,49.381618 461.423279,49.321579 
	C464.281067,49.313335 465.772095,50.154152 465.678802,53.289944 
	C465.536804,58.062580 465.641693,62.842560 465.641693,68.159424 
	C448.067139,68.159424 431.283783,68.159424 414.000549,68.159561 
z"/>
<path fill="#475465" opacity="1.000000" stroke="none" 
	d="
M853.985229,68.159561 
	C836.024170,68.159042 818.559998,68.076080 801.097778,68.223602 
	C797.372314,68.255074 795.517029,67.410301 795.924377,63.266785 
	C796.248230,59.972149 796.152100,56.610477 795.946472,53.296940 
	C795.751099,50.148697 797.162720,49.306393 800.058044,49.315968 
	C820.847595,49.384735 841.637634,49.381432 862.427246,49.321716 
	C865.282776,49.313519 866.771729,50.155354 866.678772,53.287327 
	C866.537170,58.054871 866.641663,62.829716 866.641663,68.159424 
	C862.067749,68.159424 858.275330,68.159424 853.985229,68.159561 
z"/>
<path fill="#5EC2C7" opacity="1.000000" stroke="none" 
	d="
M128.659378,62.234959 
	C122.189232,58.765648 116.113091,55.333172 109.862946,52.253841 
	C107.222969,50.953171 106.273819,49.332592 106.410683,46.452946 
	C106.630379,41.830441 106.469597,37.189854 106.469597,31.911688 
	C108.088837,32.580654 109.259933,32.952579 110.325630,33.521805 
	C123.061073,40.324249 135.745102,47.224285 148.535278,53.921783 
	C151.056412,55.241974 152.261963,56.656628 152.084488,59.640354 
	C151.808823,64.274704 152.011642,68.937515 152.011642,74.760826 
	C143.925110,70.425415 136.454071,66.419991 128.659378,62.234959 
z"/>
<path fill="#5FC4C9" opacity="1.000000" stroke="none" 
	d="
M98.889252,68.165329 
	C109.471565,73.838425 119.674759,79.436447 129.991486,84.816757 
	C132.382675,86.063797 133.367310,87.466064 133.238724,90.191887 
	C133.012314,94.991890 133.175400,99.810272 133.175400,105.366364 
	C128.704956,103.034309 124.766861,101.025436 120.870583,98.938499 
	C111.055603,93.681389 101.319786,88.271652 91.417259,83.185898 
	C88.624474,81.751564 87.600563,80.068230 87.761627,77.003922 
	C88.002846,72.414749 87.824326,67.803505 87.824326,62.347534 
	C91.907761,64.503418 95.229607,66.257217 98.889252,68.165329 
z"/>
<path fill="#010101" opacity="1.000000" stroke="none" 
	d="
M37.693970,31.152126 
	C47.466862,31.704477 52.511395,34.975948 53.899754,41.363907 
	C55.891037,50.525959 50.601017,58.003708 41.095032,58.897152 
	C36.158112,59.361172 31.133398,59.305664 26.186007,58.954388 
	C24.938292,58.865795 22.882385,56.784828 22.823637,55.542557 
	C22.494804,48.589355 22.492456,41.604317 22.826403,34.651665 
	C22.884697,33.438000 24.967236,31.502571 26.302254,31.327229 
	C29.891424,30.855818 33.582008,31.156551 37.693970,31.152126 
z"/>
<path fill="#010101" opacity="1.000000" stroke="none" 
	d="
M252.345062,44.044743 
	C251.604248,52.391979 247.937363,56.524147 240.256912,57.057720 
	C233.632980,57.517891 226.952042,57.448353 220.315353,57.165749 
	C219.120895,57.114883 217.099319,54.943737 217.029617,53.665874 
	C216.685791,47.362865 216.922760,41.030365 216.842529,34.709686 
	C216.810623,32.196568 217.772324,31.092995 220.355255,31.136955 
	C226.674667,31.244503 233.017731,30.889982 239.312103,31.309462 
	C247.542618,31.857975 251.377609,35.762184 252.345062,44.044743 
z"/>
<path fill="#010101" opacity="1.000000" stroke="none" 
	d="
M714.203857,57.248558 
	C713.034363,55.863060 711.797852,54.554970 711.748474,53.203503 
	C711.529846,47.221523 711.737854,41.225342 711.614990,35.237934 
	C711.554016,32.265141 712.678894,31.044756 715.703247,31.119001 
	C721.523376,31.261883 727.357361,30.981277 733.170593,31.228514 
	C741.470154,31.581490 746.331604,35.488632 747.173279,42.032467 
	C748.233093,50.272358 743.923706,56.274120 735.626404,56.978107 
	C728.686096,57.566967 721.667358,57.231926 714.203857,57.248558 
z"/>
</svg>